<svg xmlns="http://www.w3.org/2000/svg" xmlns:xlink="http://www.w3.org/1999/xlink" viewBox="0 0 1189.19 1047.83"><defs><style>.cls-1{fill:url(#Degradado_sin_nombre_112);}.cls-2{fill:#1a2f50;}</style><radialGradient id="Degradado_sin_nombre_112" cx="577.4" cy="522.18" r="169.48" gradientUnits="userSpaceOnUse"><stop offset="0" stop-color="#c2e5f4" stop-opacity="0.5"/><stop offset="0.65" stop-color="#46c1ee" stop-opacity="0.5"/><stop offset="1" stop-color="#00adea" stop-opacity="0.5"/></radialGradient></defs><g id="Capa_4" data-name="Capa 4"><circle class="cls-1" cx="577.4" cy="522.18" r="169.48"/><path class="cls-2" d="M300.39,542.28c4.31-16.51,8.79-33.63,13.23-50.75q10.88-42,21.73-83.92c3.25-12.47,6.45-25,10.15-37.29.82-2.73,3.46-5.05,5.61-7.21,21.62-21.7,43.16-43.47,65.14-64.81,3.67-3.56,9.05-5.92,14.07-7.41C445,286.56,459.8,283,474.54,279c32.93-8.82,65.78-18,98.83-26.36,10.28-2.6,21.76-6,31.59-3.86,26.32,5.66,51.77,15.48,78.13,20.86,13.43,2.74,21.85,9.91,30.52,18.67,31.21,31.57,62.31,63.26,93.94,94.4,11.37,11.19,20.78,22.41,24.44,38.87,5.7,25.65,15.24,50.5,20.14,76.26,2.06,10.84-2.91,23.31-5.83,34.74-7.77,30.39-16.21,60.6-24.29,90.91-4.55,17.08-8.7,34.28-13.51,51.29-1,3.38-3.7,6.53-6.28,9.13-20.84,21-41.59,42.14-63,62.58-4.78,4.56-11.71,7.64-18.19,9.53-25.48,7.46-51.15,14.26-76.8,21.14-28,7.5-56,14.95-84,22-3.73.94-8.23.26-12.06-.79-28.27-7.79-56.52-15.7-84.64-24a33.26,33.26,0,0,1-13-7.63c-16.2-15.41-32-31.28-47.94-46.95-19.11-18.75-37.21-38.74-57.75-55.8-16.5-13.71-21.37-31.75-26.45-50.42-5-18.4-9.53-37-14.22-55.44C302.9,553.26,301.81,548.29,300.39,542.28ZM616.64,687.91c-6.18-25.4-11.91-49.95-18.18-74.35-5.52-21.47-12.66-42.56-17.2-64.22-3.59-17.13-10.91-27.1-29.25-30.84-29.23-6-57.9-14.66-86.81-22.2-14.51-3.78-29.09-7.35-43.54-11.41-6.49-1.82-10.32-1.33-13.51,5.92-9.64,21.83-20,43.34-30.57,64.76-12.86,26.1-26.21,51.95-39.26,78-2.81,5.62-2.95,10.58,2.63,15.39,7.28,6.27,13.79,13.45,20.54,20.33q47.37,48.16,94.73,96.42Zm7-2.27c23-1.49,44.62-2.81,66.23-4.34,13.3-.94,26.57-2.48,39.88-3.3,18.66-1.15,37.35-1.8,56-2.84,9-.5,17-1.53,19.1-13.5,2.4-13.37,7.31-26.26,10.83-39.44,9.55-35.83,18.81-71.74,28.55-107.51,1.68-6.17,1-10-4.65-13.57-14.16-8.9-28.12-18.16-42-27.54-32.88-22.27-65.66-44.7-98.08-66.79-1.43.52-2.24.57-2.68,1Q640.9,463.5,585.16,519.4c-1.89,1.91-2.66,6.3-2,9.1,3.35,14.92,7.13,29.76,11.1,44.53,4.67,17.39,9.92,34.61,14.46,52C613.84,644.8,618.47,664.68,623.61,685.64Zm69.56-284.79c-7.46-10.75-15-21.34-22.28-32.17q-36.2-54.21-72.09-108.63c-3.54-5.39-7-5.55-12.84-3.8-21.5,6.4-43.23,12.08-64.93,17.82-26.62,7-53.42,13.42-79.9,21-14.77,4.21-15.26,7-16,22.3-1.23,24.93-3.41,49.82-5.15,74.72s-3.49,49.52-5.09,74.28c-.38,5.79.55,10,8.11,11.59,18.52,4,36.77,9.23,55.11,14.06,30.92,8.14,61.79,16.48,92.8,24.3a13.12,13.12,0,0,0,10.25-2.56c7.7-6.8,14.64-14.46,21.88-21.77Zm-226,367.42c26.18,7.46,49.38,14.23,72.7,20.59,6.77,1.85,13.94,3.79,20.79,3.38,7.68-.46,15.22-3.45,22.78-5.49,34.92-9.42,69.55-20.14,104.81-28,27.85-6.18,50.67-18.13,68.94-40.35C767.76,705.61,781,695,795.08,681.36c-35.73,2.12-68,3.85-100.18,6-19.8,1.32-39.56,3.16-59.33,4.94-6,.55-12.62.29-17.86,2.75-30.94,14.49-61.57,29.66-92.28,44.64C506.76,748.8,488.12,758,467.2,768.27Zm137-512.68c16.92,25.53,32.15,48.6,47.48,71.61q22.49,33.76,45.24,67.36a32.8,32.8,0,0,0,8.67,8.51c33.28,22.36,66.73,44.47,100,66.79C817.9,478.12,830,486.78,844.66,497c-7.09-26.21-14.09-48.87-19.17-72-3.3-15.06-11.85-25.52-22.31-35.82q-49.24-48.53-97.58-97.95c-7.15-7.26-14.31-13.38-24.89-15-7.68-1.21-15.12-4-22.67-6ZM418.83,309.24,416.46,308Q385.68,339.09,355,370.25a12.9,12.9,0,0,0-3,5.33c-5.08,17.67-10.2,35.33-15,53.08-8,30-16.35,59.86-23.34,90.07-2.65,11.44-8.52,22.44-2.87,35.74,5.38,12.63,6.42,27.06,9.86,40.57,3.06,12,6.79,23.91,11,38.66,5.69-12.6,10.05-22.9,14.95-32.94,17.57-36,34.82-72.12,53.27-107.64,6.27-12.08,8.19-24.28,9-37.34,1.73-29.6,3.91-59.18,5.93-88.76Q416.79,338.13,418.83,309.24Z"/></g></svg>